{
	"patcher" : 	{
		"fileversion" : 1,
		"appversion" : 		{
			"major" : 8,
			"minor" : 6,
			"revision" : 2,
			"architecture" : "x64",
			"modernui" : 1
		}
,
		"classnamespace" : "box",
		"rect" : [ 97.0, 105.0, 528.0, 882.0 ],
		"bglocked" : 0,
		"openinpresentation" : 0,
		"default_fontsize" : 12.0,
		"default_fontface" : 0,
		"default_fontname" : "JetBrains Mono",
		"gridonopen" : 2,
		"gridsize" : [ 15.0, 5.0 ],
		"gridsnaponopen" : 2,
		"objectsnaponopen" : 0,
		"statusbarvisible" : 2,
		"toolbarvisible" : 1,
		"lefttoolbarpinned" : 0,
		"toptoolbarpinned" : 0,
		"righttoolbarpinned" : 0,
		"bottomtoolbarpinned" : 0,
		"toolbars_unpinned_last_save" : 0,
		"tallnewobj" : 0,
		"boxanimatetime" : 200,
		"enablehscroll" : 1,
		"enablevscroll" : 1,
		"devicewidth" : 0.0,
		"description" : "",
		"digest" : "",
		"tags" : "",
		"style" : "cassiel",
		"subpatcher_template" : "cassiel",
		"assistshowspatchername" : 0,
		"boxes" : [ 			{
				"box" : 				{
					"id" : "obj-82",
					"maxclass" : "newobj",
					"numinlets" : 2,
					"numoutlets" : 1,
					"outlettype" : [ "int" ],
					"patching_rect" : [ 1005.0, 670.0, 37.0, 23.0 ],
					"text" : "- 35"
				}

			}
, 			{
				"box" : 				{
					"id" : "obj-81",
					"maxclass" : "number",
					"numinlets" : 1,
					"numoutlets" : 2,
					"outlettype" : [ "", "bang" ],
					"parameter_enable" : 0,
					"patching_rect" : [ 960.0, 490.0, 50.0, 23.0 ]
				}

			}
, 			{
				"box" : 				{
					"fontsize" : 16.0,
					"id" : "obj-74",
					"maxclass" : "comment",
					"numinlets" : 1,
					"numoutlets" : 0,
					"patching_rect" : [ 1050.0, 250.0, 194.0, 26.0 ],
					"presentation" : 1,
					"presentation_rect" : [ 315.0, 35.0, 60.0, 26.0 ],
					"text" : "DISC",
					"textcolor" : [ 1.0, 1.0, 1.0, 1.0 ]
				}

			}
, 			{
				"box" : 				{
					"fontsize" : 16.0,
					"id" : "obj-75",
					"maxclass" : "comment",
					"numinlets" : 1,
					"numoutlets" : 0,
					"patching_rect" : [ 1050.0, 205.0, 194.0, 26.0 ],
					"presentation" : 1,
					"presentation_rect" : [ 255.0, 35.0, 60.0, 26.0 ],
					"text" : "RIFT",
					"textcolor" : [ 1.0, 1.0, 1.0, 1.0 ]
				}

			}
, 			{
				"box" : 				{
					"fontsize" : 16.0,
					"id" : "obj-76",
					"maxclass" : "comment",
					"numinlets" : 1,
					"numoutlets" : 0,
					"patching_rect" : [ 1035.0, 190.0, 194.0, 26.0 ],
					"presentation" : 1,
					"presentation_rect" : [ 195.0, 35.0, 60.0, 26.0 ],
					"text" : "SHAP",
					"textcolor" : [ 1.0, 1.0, 1.0, 1.0 ]
				}

			}
, 			{
				"box" : 				{
					"fontsize" : 16.0,
					"id" : "obj-77",
					"maxclass" : "comment",
					"numinlets" : 1,
					"numoutlets" : 0,
					"patching_rect" : [ 1020.0, 175.0, 194.0, 26.0 ],
					"presentation" : 1,
					"presentation_rect" : [ 135.0, 35.0, 60.0, 26.0 ],
					"text" : "EN RR",
					"textcolor" : [ 1.0, 1.0, 1.0, 1.0 ]
				}

			}
, 			{
				"box" : 				{
					"fontsize" : 16.0,
					"id" : "obj-78",
					"maxclass" : "comment",
					"numinlets" : 1,
					"numoutlets" : 0,
					"patching_rect" : [ 1005.0, 160.0, 194.0, 26.0 ],
					"presentation" : 1,
					"presentation_rect" : [ 75.0, 35.0, 60.0, 26.0 ],
					"text" : "EN FF",
					"textcolor" : [ 1.0, 1.0, 1.0, 1.0 ]
				}

			}
, 			{
				"box" : 				{
					"fontsize" : 16.0,
					"id" : "obj-79",
					"maxclass" : "comment",
					"numinlets" : 1,
					"numoutlets" : 0,
					"patching_rect" : [ 990.0, 145.0, 194.0, 26.0 ],
					"presentation" : 1,
					"presentation_rect" : [ 15.0, 35.0, 60.0, 26.0 ],
					"text" : "PRINT",
					"textcolor" : [ 1.0, 1.0, 1.0, 1.0 ]
				}

			}
, 			{
				"box" : 				{
					"fontsize" : 16.0,
					"id" : "obj-73",
					"maxclass" : "comment",
					"numinlets" : 1,
					"numoutlets" : 0,
					"patching_rect" : [ 1050.0, 205.0, 194.0, 26.0 ],
					"presentation" : 1,
					"presentation_rect" : [ 315.0, 380.0, 60.0, 26.0 ],
					"text" : "DISC",
					"textcolor" : [ 1.0, 1.0, 1.0, 1.0 ]
				}

			}
, 			{
				"box" : 				{
					"fontsize" : 16.0,
					"id" : "obj-72",
					"maxclass" : "comment",
					"numinlets" : 1,
					"numoutlets" : 0,
					"patching_rect" : [ 1035.0, 190.0, 194.0, 26.0 ],
					"presentation" : 1,
					"presentation_rect" : [ 255.0, 380.0, 60.0, 26.0 ],
					"text" : "RIFT",
					"textcolor" : [ 1.0, 1.0, 1.0, 1.0 ]
				}

			}
, 			{
				"box" : 				{
					"fontsize" : 16.0,
					"id" : "obj-71",
					"maxclass" : "comment",
					"numinlets" : 1,
					"numoutlets" : 0,
					"patching_rect" : [ 1020.0, 175.0, 194.0, 26.0 ],
					"presentation" : 1,
					"presentation_rect" : [ 195.0, 380.0, 60.0, 26.0 ],
					"text" : "SHAP",
					"textcolor" : [ 1.0, 1.0, 1.0, 1.0 ]
				}

			}
, 			{
				"box" : 				{
					"fontsize" : 16.0,
					"id" : "obj-70",
					"maxclass" : "comment",
					"numinlets" : 1,
					"numoutlets" : 0,
					"patching_rect" : [ 1005.0, 160.0, 194.0, 26.0 ],
					"presentation" : 1,
					"presentation_rect" : [ 135.0, 380.0, 60.0, 26.0 ],
					"text" : "EN RR",
					"textcolor" : [ 1.0, 1.0, 1.0, 1.0 ]
				}

			}
, 			{
				"box" : 				{
					"fontsize" : 16.0,
					"id" : "obj-69",
					"maxclass" : "comment",
					"numinlets" : 1,
					"numoutlets" : 0,
					"patching_rect" : [ 990.0, 145.0, 194.0, 26.0 ],
					"presentation" : 1,
					"presentation_rect" : [ 75.0, 380.0, 60.0, 26.0 ],
					"text" : "EN FF",
					"textcolor" : [ 1.0, 1.0, 1.0, 1.0 ]
				}

			}
, 			{
				"box" : 				{
					"fontsize" : 16.0,
					"id" : "obj-68",
					"maxclass" : "comment",
					"numinlets" : 1,
					"numoutlets" : 0,
					"patching_rect" : [ 975.0, 130.0, 194.0, 26.0 ],
					"presentation" : 1,
					"presentation_rect" : [ 15.0, 380.0, 60.0, 26.0 ],
					"text" : "PRINT",
					"textcolor" : [ 1.0, 1.0, 1.0, 1.0 ]
				}

			}
, 			{
				"box" : 				{
					"fontsize" : 16.0,
					"id" : "obj-67",
					"maxclass" : "comment",
					"numinlets" : 1,
					"numoutlets" : 0,
					"patching_rect" : [ 1005.0, 160.0, 194.0, 26.0 ],
					"presentation" : 1,
					"presentation_rect" : [ 375.0, 635.0, 116.0, 26.0 ],
					"text" : "LEVEL",
					"textcolor" : [ 1.0, 1.0, 1.0, 1.0 ]
				}

			}
, 			{
				"box" : 				{
					"fontsize" : 16.0,
					"id" : "obj-66",
					"maxclass" : "comment",
					"numinlets" : 1,
					"numoutlets" : 0,
					"patching_rect" : [ 990.0, 145.0, 194.0, 26.0 ],
					"presentation" : 1,
					"presentation_rect" : [ 375.0, 570.0, 116.0, 26.0 ],
					"text" : "DISCORD",
					"textcolor" : [ 1.0, 1.0, 1.0, 1.0 ]
				}

			}
, 			{
				"box" : 				{
					"fontsize" : 16.0,
					"id" : "obj-65",
					"maxclass" : "comment",
					"numinlets" : 1,
					"numoutlets" : 0,
					"patching_rect" : [ 975.0, 130.0, 194.0, 26.0 ],
					"presentation" : 1,
					"presentation_rect" : [ 375.0, 505.0, 116.0, 26.0 ],
					"text" : "RIFT",
					"textcolor" : [ 1.0, 1.0, 1.0, 1.0 ]
				}

			}
, 			{
				"box" : 				{
					"fontsize" : 16.0,
					"id" : "obj-64",
					"maxclass" : "comment",
					"numinlets" : 1,
					"numoutlets" : 0,
					"patching_rect" : [ 960.0, 115.0, 194.0, 26.0 ],
					"presentation" : 1,
					"presentation_rect" : [ 375.0, 440.0, 116.0, 26.0 ],
					"text" : "SHAPERBOX",
					"textcolor" : [ 1.0, 1.0, 1.0, 1.0 ]
				}

			}
, 			{
				"box" : 				{
					"fontsize" : 16.0,
					"id" : "obj-63",
					"maxclass" : "comment",
					"numinlets" : 1,
					"numoutlets" : 0,
					"patching_rect" : [ 945.0, 100.0, 194.0, 26.0 ],
					"presentation" : 1,
					"presentation_rect" : [ 375.0, 290.0, 116.0, 26.0 ],
					"text" : "ENSO RR",
					"textcolor" : [ 1.0, 1.0, 1.0, 1.0 ]
				}

			}
, 			{
				"box" : 				{
					"fontsize" : 16.0,
					"id" : "obj-62",
					"maxclass" : "comment",
					"numinlets" : 1,
					"numoutlets" : 0,
					"patching_rect" : [ 930.0, 85.0, 194.0, 26.0 ],
					"presentation" : 1,
					"presentation_rect" : [ 375.0, 225.0, 116.0, 26.0 ],
					"text" : "ENSO FF",
					"textcolor" : [ 1.0, 1.0, 1.0, 1.0 ]
				}

			}
, 			{
				"box" : 				{
					"bgcolor" : [ 0.27843137254902, 0.168627450980392, 0.168627450980392, 0.2 ],
					"fontsize" : 16.0,
					"id" : "obj-59",
					"maxclass" : "comment",
					"numinlets" : 1,
					"numoutlets" : 0,
					"patching_rect" : [ 915.0, 70.0, 194.0, 26.0 ],
					"presentation" : 1,
					"presentation_rect" : [ 375.0, 160.0, 116.0, 26.0 ],
					"text" : "PARAM 2",
					"textcolor" : [ 0.960784, 0.827451, 0.156863, 1.0 ]
				}

			}
, 			{
				"box" : 				{
					"bgcolor" : [ 0.27843137254902, 0.168627450980392, 0.168627450980392, 0.2 ],
					"fontsize" : 16.0,
					"id" : "obj-58",
					"maxclass" : "comment",
					"numinlets" : 1,
					"numoutlets" : 0,
					"patching_rect" : [ 900.0, 55.0, 194.0, 26.0 ],
					"presentation" : 1,
					"presentation_rect" : [ 375.0, 95.0, 116.0, 26.0 ],
					"text" : "PARAM 1",
					"textcolor" : [ 0.960784, 0.827451, 0.156863, 1.0 ]
				}

			}
, 			{
				"box" : 				{
					"args" : [ 12 ],
					"bgmode" : 0,
					"border" : 0,
					"clickthrough" : 0,
					"enablehscroll" : 0,
					"enablevscroll" : 0,
					"id" : "obj-53",
					"lockeddragscroll" : 0,
					"lockedsize" : 0,
					"maxclass" : "bpatcher",
					"name" : "ams.ShowBank.maxpat",
					"numinlets" : 1,
					"numoutlets" : 1,
					"offset" : [ -15.0, -15.0 ],
					"outlettype" : [ "" ],
					"patching_rect" : [ 705.0, 420.0, 60.0, 284.0 ],
					"presentation" : 1,
					"presentation_rect" : [ 315.0, 65.0, 60.0, 285.0 ],
					"viewvisibility" : 1
				}

			}
, 			{
				"box" : 				{
					"args" : [ 11 ],
					"bgmode" : 0,
					"border" : 0,
					"clickthrough" : 0,
					"enablehscroll" : 0,
					"enablevscroll" : 0,
					"id" : "obj-54",
					"lockeddragscroll" : 0,
					"lockedsize" : 0,
					"maxclass" : "bpatcher",
					"name" : "ams.ShowBank.maxpat",
					"numinlets" : 1,
					"numoutlets" : 1,
					"offset" : [ -15.0, -15.0 ],
					"outlettype" : [ "" ],
					"patching_rect" : [ 645.0, 420.0, 60.0, 284.0 ],
					"presentation" : 1,
					"presentation_rect" : [ 255.0, 65.0, 60.0, 285.0 ],
					"viewvisibility" : 1
				}

			}
, 			{
				"box" : 				{
					"args" : [ 10 ],
					"bgmode" : 0,
					"border" : 0,
					"clickthrough" : 0,
					"enablehscroll" : 0,
					"enablevscroll" : 0,
					"id" : "obj-55",
					"lockeddragscroll" : 0,
					"lockedsize" : 0,
					"maxclass" : "bpatcher",
					"name" : "ams.ShowBank.maxpat",
					"numinlets" : 1,
					"numoutlets" : 1,
					"offset" : [ -15.0, -15.0 ],
					"outlettype" : [ "" ],
					"patching_rect" : [ 585.0, 420.0, 60.0, 284.0 ],
					"presentation" : 1,
					"presentation_rect" : [ 195.0, 65.0, 60.0, 285.0 ],
					"viewvisibility" : 1
				}

			}
, 			{
				"box" : 				{
					"args" : [ 9 ],
					"bgmode" : 0,
					"border" : 0,
					"clickthrough" : 0,
					"enablehscroll" : 0,
					"enablevscroll" : 0,
					"id" : "obj-56",
					"lockeddragscroll" : 0,
					"lockedsize" : 0,
					"maxclass" : "bpatcher",
					"name" : "ams.ShowBank.maxpat",
					"numinlets" : 1,
					"numoutlets" : 1,
					"offset" : [ -15.0, -15.0 ],
					"outlettype" : [ "" ],
					"patching_rect" : [ 525.0, 420.0, 60.0, 284.0 ],
					"presentation" : 1,
					"presentation_rect" : [ 135.0, 65.0, 60.0, 285.0 ],
					"viewvisibility" : 1
				}

			}
, 			{
				"box" : 				{
					"id" : "obj-52",
					"maxclass" : "comment",
					"numinlets" : 1,
					"numoutlets" : 0,
					"patching_rect" : [ 930.0, 235.0, 45.0, 21.0 ],
					"presentation" : 1,
					"presentation_rect" : [ 15.0, 800.0, 210.0, 21.0 ],
					"text" : "OUT"
				}

			}
, 			{
				"box" : 				{
					"id" : "obj-50",
					"maxclass" : "comment",
					"numinlets" : 1,
					"numoutlets" : 0,
					"patching_rect" : [ 1005.0, 375.0, 150.0, 21.0 ],
					"presentation" : 1,
					"presentation_rect" : [ 15.0, 740.0, 210.0, 21.0 ],
					"text" : "IN"
				}

			}
, 			{
				"box" : 				{
					"id" : "obj-46",
					"maxclass" : "message",
					"numinlets" : 2,
					"numoutlets" : 1,
					"outlettype" : [ "" ],
					"patching_rect" : [ 975.0, 795.0, 124.0, 23.0 ],
					"text" : "nudge_bank_to $1"
				}

			}
, 			{
				"box" : 				{
					"id" : "obj-44",
					"maxclass" : "number",
					"numinlets" : 1,
					"numoutlets" : 2,
					"outlettype" : [ "", "bang" ],
					"parameter_enable" : 0,
					"patching_rect" : [ 975.0, 760.0, 50.0, 23.0 ]
				}

			}
, 			{
				"box" : 				{
					"id" : "obj-42",
					"maxclass" : "newobj",
					"numinlets" : 2,
					"numoutlets" : 1,
					"outlettype" : [ "int" ],
					"patching_rect" : [ 1065.0, 670.0, 37.0, 23.0 ],
					"text" : "- 29"
				}

			}
, 			{
				"box" : 				{
					"id" : "obj-35",
					"maxclass" : "gswitch2",
					"numinlets" : 2,
					"numoutlets" : 2,
					"outlettype" : [ "", "" ],
					"parameter_enable" : 0,
					"patching_rect" : [ 1050.0, 595.0, 39.0, 32.0 ]
				}

			}
, 			{
				"box" : 				{
					"id" : "obj-33",
					"maxclass" : "newobj",
					"numinlets" : 2,
					"numoutlets" : 1,
					"outlettype" : [ "int" ],
					"patching_rect" : [ 1170.0, 595.0, 52.0, 23.0 ],
					"text" : "== 127"
				}

			}
, 			{
				"box" : 				{
					"id" : "obj-31",
					"maxclass" : "newobj",
					"numinlets" : 1,
					"numoutlets" : 2,
					"outlettype" : [ "int", "bang" ],
					"patching_rect" : [ 1050.0, 545.0, 44.0, 23.0 ],
					"text" : "t i b"
				}

			}
, 			{
				"box" : 				{
					"id" : "obj-25",
					"maxclass" : "newobj",
					"numinlets" : 2,
					"numoutlets" : 1,
					"outlettype" : [ "int" ],
					"patching_rect" : [ 1170.0, 530.0, 30.0, 23.0 ],
					"text" : "int"
				}

			}
, 			{
				"box" : 				{
					"id" : "obj-24",
					"maxclass" : "newobj",
					"numinlets" : 3,
					"numoutlets" : 2,
					"outlettype" : [ "int", "int" ],
					"patching_rect" : [ 1020.0, 505.0, 88.0, 23.0 ],
					"text" : "split 36 41"
				}

			}
, 			{
				"box" : 				{
					"id" : "obj-19",
					"items" : [ "Midi Fighter Spectra", ",", "IAC Driver IAC 1", ",", "IAC Driver IAC CLOCK", ",", "to Max 1", ",", "to Max 2", ",", "USB MIDI Device Port 1", ",", "USB MIDI Device Port 2" ],
					"maxclass" : "umenu",
					"numinlets" : 1,
					"numoutlets" : 3,
					"outlettype" : [ "int", "", "" ],
					"parameter_enable" : 0,
					"patching_rect" : [ 915.0, 400.0, 210.0, 23.0 ],
					"presentation" : 1,
					"presentation_rect" : [ 15.0, 765.0, 210.0, 23.0 ]
				}

			}
, 			{
				"box" : 				{
					"id" : "obj-18",
					"maxclass" : "newobj",
					"numinlets" : 1,
					"numoutlets" : 1,
					"outlettype" : [ "" ],
					"patching_rect" : [ 915.0, 305.0, 152.0, 23.0 ],
					"text" : "loadmess controllers"
				}

			}
, 			{
				"box" : 				{
					"id" : "obj-16",
					"maxclass" : "newobj",
					"numinlets" : 2,
					"numoutlets" : 1,
					"outlettype" : [ "" ],
					"patching_rect" : [ 915.0, 360.0, 66.0, 23.0 ],
					"text" : "midiinfo"
				}

			}
, 			{
				"box" : 				{
					"id" : "obj-14",
					"maxclass" : "newobj",
					"numinlets" : 1,
					"numoutlets" : 3,
					"outlettype" : [ "int", "int", "int" ],
					"patching_rect" : [ 1050.0, 440.0, 52.0, 23.0 ],
					"text" : "notein"
				}

			}
, 			{
				"box" : 				{
					"id" : "obj-15",
					"maxclass" : "newobj",
					"numinlets" : 2,
					"numoutlets" : 2,
					"outlettype" : [ "", "" ],
					"patching_rect" : [ 135.0, 800.0, 80.0, 23.0 ],
					"text" : "route ctrl"
				}

			}
, 			{
				"box" : 				{
					"args" : [ 8 ],
					"bgmode" : 0,
					"border" : 0,
					"clickthrough" : 0,
					"enablehscroll" : 0,
					"enablevscroll" : 0,
					"id" : "obj-9",
					"lockeddragscroll" : 0,
					"lockedsize" : 0,
					"maxclass" : "bpatcher",
					"name" : "ams.ShowBank.maxpat",
					"numinlets" : 1,
					"numoutlets" : 1,
					"offset" : [ -15.0, -15.0 ],
					"outlettype" : [ "" ],
					"patching_rect" : [ 450.0, 420.0, 60.0, 284.0 ],
					"presentation" : 1,
					"presentation_rect" : [ 75.0, 65.0, 60.0, 285.0 ],
					"viewvisibility" : 1
				}

			}
, 			{
				"box" : 				{
					"args" : [ 7 ],
					"bgmode" : 0,
					"border" : 0,
					"clickthrough" : 0,
					"enablehscroll" : 0,
					"enablevscroll" : 0,
					"id" : "obj-10",
					"lockeddragscroll" : 0,
					"lockedsize" : 0,
					"maxclass" : "bpatcher",
					"name" : "ams.ShowBank.maxpat",
					"numinlets" : 1,
					"numoutlets" : 1,
					"offset" : [ -15.0, -15.0 ],
					"outlettype" : [ "" ],
					"patching_rect" : [ 390.0, 420.0, 60.0, 284.0 ],
					"presentation" : 1,
					"presentation_rect" : [ 15.0, 65.0, 60.0, 285.0 ],
					"viewvisibility" : 1
				}

			}
, 			{
				"box" : 				{
					"args" : [ 6 ],
					"bgmode" : 0,
					"border" : 0,
					"clickthrough" : 0,
					"enablehscroll" : 0,
					"enablevscroll" : 0,
					"id" : "obj-11",
					"lockeddragscroll" : 0,
					"lockedsize" : 0,
					"maxclass" : "bpatcher",
					"name" : "ams.ShowBank.maxpat",
					"numinlets" : 1,
					"numoutlets" : 1,
					"offset" : [ -15.0, -15.0 ],
					"outlettype" : [ "" ],
					"patching_rect" : [ 330.0, 420.0, 60.0, 284.0 ],
					"presentation" : 1,
					"presentation_rect" : [ 315.0, 410.0, 60.0, 285.0 ],
					"viewvisibility" : 1
				}

			}
, 			{
				"box" : 				{
					"args" : [ 5 ],
					"bgmode" : 0,
					"border" : 0,
					"clickthrough" : 0,
					"enablehscroll" : 0,
					"enablevscroll" : 0,
					"id" : "obj-13",
					"lockeddragscroll" : 0,
					"lockedsize" : 0,
					"maxclass" : "bpatcher",
					"name" : "ams.ShowBank.maxpat",
					"numinlets" : 1,
					"numoutlets" : 1,
					"offset" : [ -15.0, -15.0 ],
					"outlettype" : [ "" ],
					"patching_rect" : [ 270.0, 420.0, 60.0, 284.0 ],
					"presentation" : 1,
					"presentation_rect" : [ 255.0, 410.0, 60.0, 285.0 ],
					"viewvisibility" : 1
				}

			}
, 			{
				"box" : 				{
					"args" : [ 4 ],
					"bgmode" : 0,
					"border" : 0,
					"clickthrough" : 0,
					"enablehscroll" : 0,
					"enablevscroll" : 0,
					"id" : "obj-8",
					"lockeddragscroll" : 0,
					"lockedsize" : 0,
					"maxclass" : "bpatcher",
					"name" : "ams.ShowBank.maxpat",
					"numinlets" : 1,
					"numoutlets" : 1,
					"offset" : [ -15.0, -15.0 ],
					"outlettype" : [ "" ],
					"patching_rect" : [ 195.0, 420.0, 60.0, 284.0 ],
					"presentation" : 1,
					"presentation_rect" : [ 195.0, 410.0, 60.0, 285.0 ],
					"viewvisibility" : 1
				}

			}
, 			{
				"box" : 				{
					"args" : [ 3 ],
					"bgmode" : 0,
					"border" : 0,
					"clickthrough" : 0,
					"enablehscroll" : 0,
					"enablevscroll" : 0,
					"id" : "obj-7",
					"lockeddragscroll" : 0,
					"lockedsize" : 0,
					"maxclass" : "bpatcher",
					"name" : "ams.ShowBank.maxpat",
					"numinlets" : 1,
					"numoutlets" : 1,
					"offset" : [ -15.0, -15.0 ],
					"outlettype" : [ "" ],
					"patching_rect" : [ 135.0, 420.0, 60.0, 284.0 ],
					"presentation" : 1,
					"presentation_rect" : [ 135.0, 410.0, 60.0, 285.0 ],
					"viewvisibility" : 1
				}

			}
, 			{
				"box" : 				{
					"args" : [ 2 ],
					"bgmode" : 0,
					"border" : 0,
					"clickthrough" : 0,
					"enablehscroll" : 0,
					"enablevscroll" : 0,
					"id" : "obj-6",
					"lockeddragscroll" : 0,
					"lockedsize" : 0,
					"maxclass" : "bpatcher",
					"name" : "ams.ShowBank.maxpat",
					"numinlets" : 1,
					"numoutlets" : 1,
					"offset" : [ -15.0, -15.0 ],
					"outlettype" : [ "" ],
					"patching_rect" : [ 75.0, 420.0, 60.0, 284.0 ],
					"presentation" : 1,
					"presentation_rect" : [ 75.0, 410.0, 60.0, 285.0 ],
					"viewvisibility" : 1
				}

			}
, 			{
				"box" : 				{
					"id" : "obj-5",
					"items" : [ "AU DLS Synth 1", ",", "Midi Fighter Spectra", ",", "IAC Driver IAC 1", ",", "IAC Driver IAC CLOCK", ",", "from Max 1", ",", "from Max 2", ",", "USB MIDI Device Port 1", ",", "USB MIDI Device Port 2" ],
					"maxclass" : "umenu",
					"numinlets" : 1,
					"numoutlets" : 3,
					"outlettype" : [ "int", "", "" ],
					"parameter_enable" : 0,
					"patching_rect" : [ 810.0, 260.0, 165.0, 23.0 ],
					"presentation" : 1,
					"presentation_rect" : [ 15.0, 825.0, 210.0, 23.0 ]
				}

			}
, 			{
				"box" : 				{
					"id" : "obj-4",
					"maxclass" : "newobj",
					"numinlets" : 1,
					"numoutlets" : 1,
					"outlettype" : [ "bang" ],
					"patching_rect" : [ 795.0, 165.0, 66.0, 23.0 ],
					"text" : "loadbang"
				}

			}
, 			{
				"box" : 				{
					"id" : "obj-3",
					"maxclass" : "newobj",
					"numinlets" : 2,
					"numoutlets" : 1,
					"outlettype" : [ "" ],
					"patching_rect" : [ 795.0, 210.0, 66.0, 23.0 ],
					"text" : "midiinfo"
				}

			}
, 			{
				"box" : 				{
					"id" : "obj-2",
					"maxclass" : "newobj",
					"numinlets" : 3,
					"numoutlets" : 0,
					"patching_rect" : [ 780.0, 805.0, 52.0, 23.0 ],
					"text" : "ctlout"
				}

			}
, 			{
				"box" : 				{
					"args" : [ 1 ],
					"bgmode" : 0,
					"border" : 0,
					"clickthrough" : 0,
					"enablehscroll" : 0,
					"enablevscroll" : 0,
					"id" : "obj-41",
					"lockeddragscroll" : 0,
					"lockedsize" : 0,
					"maxclass" : "bpatcher",
					"name" : "ams.ShowBank.maxpat",
					"numinlets" : 1,
					"numoutlets" : 1,
					"offset" : [ -15.0, -15.0 ],
					"outlettype" : [ "" ],
					"patching_rect" : [ 15.0, 420.0, 60.0, 284.0 ],
					"presentation" : 1,
					"presentation_rect" : [ 15.0, 410.0, 60.0, 285.0 ],
					"viewvisibility" : 1
				}

			}
, 			{
				"box" : 				{
					"id" : "obj-29",
					"maxclass" : "newobj",
					"numinlets" : 1,
					"numoutlets" : 1,
					"outlettype" : [ "" ],
					"patching_rect" : [ 195.0, 125.0, 102.0, 23.0 ],
					"text" : "prepend delta"
				}

			}
, 			{
				"box" : 				{
					"id" : "obj-28",
					"maxclass" : "newobj",
					"numinlets" : 2,
					"numoutlets" : 2,
					"outlettype" : [ "", "" ],
					"patching_rect" : [ 195.0, 90.0, 167.0, 23.0 ],
					"text" : "route /arc_4/enc/delta"
				}

			}
, 			{
				"box" : 				{
					"id" : "obj-27",
					"maxclass" : "newobj",
					"numinlets" : 3,
					"numoutlets" : 3,
					"outlettype" : [ "", "", "" ],
					"patching_rect" : [ 195.0, 285.0, 131.0, 23.0 ],
					"text" : "route arc display"
				}

			}
, 			{
				"box" : 				{
					"id" : "obj-26",
					"maxclass" : "newobj",
					"numinlets" : 1,
					"numoutlets" : 0,
					"patching_rect" : [ 825.0, 330.0, 44.0, 23.0 ],
					"text" : "print"
				}

			}
, 			{
				"box" : 				{
					"fontsize" : 16.0,
					"id" : "obj-20",
					"maxclass" : "newobj",
					"numinlets" : 1,
					"numoutlets" : 1,
					"outlettype" : [ "" ],
					"patching_rect" : [ 210.0, 205.0, 344.0, 28.0 ],
					"saved_object_attributes" : 					{
						"filename" : "arc-max-simple.js",
						"parameter_enable" : 0
					}
,
					"text" : "js arc-max-simple.js @autowatch 1",
					"textcolor" : [ 0.862745, 0.741176, 0.137255, 1.0 ]
				}

			}
, 			{
				"box" : 				{
					"args" : [ "/arc_4" ],
					"bgmode" : 0,
					"border" : 0,
					"clickthrough" : 0,
					"enablehscroll" : 0,
					"enablevscroll" : 0,
					"id" : "obj-1",
					"lockeddragscroll" : 0,
					"lockedsize" : 0,
					"maxclass" : "bpatcher",
					"name" : "monome-device.maxpat",
					"numinlets" : 3,
					"numoutlets" : 6,
					"offset" : [ 0.0, 0.0 ],
					"outlettype" : [ "", "int", "", "", "", "" ],
					"patching_rect" : [ 195.0, 25.0, 210.0, 35.0 ],
					"presentation" : 1,
					"presentation_rect" : [ 15.0, 705.0, 195.0, 25.0 ],
					"viewvisibility" : 1
				}

			}
 ],
		"lines" : [ 			{
				"patchline" : 				{
					"destination" : [ "obj-28", 0 ],
					"source" : [ "obj-1", 0 ]
				}

			}
, 			{
				"patchline" : 				{
					"destination" : [ "obj-15", 0 ],
					"source" : [ "obj-10", 0 ]
				}

			}
, 			{
				"patchline" : 				{
					"destination" : [ "obj-15", 0 ],
					"source" : [ "obj-11", 0 ]
				}

			}
, 			{
				"patchline" : 				{
					"destination" : [ "obj-15", 0 ],
					"source" : [ "obj-13", 0 ]
				}

			}
, 			{
				"patchline" : 				{
					"destination" : [ "obj-24", 0 ],
					"order" : 0,
					"source" : [ "obj-14", 0 ]
				}

			}
, 			{
				"patchline" : 				{
					"destination" : [ "obj-25", 1 ],
					"source" : [ "obj-14", 1 ]
				}

			}
, 			{
				"patchline" : 				{
					"destination" : [ "obj-81", 0 ],
					"order" : 1,
					"source" : [ "obj-14", 0 ]
				}

			}
, 			{
				"patchline" : 				{
					"destination" : [ "obj-2", 0 ],
					"source" : [ "obj-15", 0 ]
				}

			}
, 			{
				"patchline" : 				{
					"destination" : [ "obj-19", 0 ],
					"source" : [ "obj-16", 0 ]
				}

			}
, 			{
				"patchline" : 				{
					"destination" : [ "obj-16", 0 ],
					"source" : [ "obj-18", 0 ]
				}

			}
, 			{
				"patchline" : 				{
					"destination" : [ "obj-14", 0 ],
					"source" : [ "obj-19", 1 ]
				}

			}
, 			{
				"patchline" : 				{
					"destination" : [ "obj-26", 0 ],
					"order" : 0,
					"source" : [ "obj-20", 0 ]
				}

			}
, 			{
				"patchline" : 				{
					"destination" : [ "obj-27", 0 ],
					"order" : 1,
					"source" : [ "obj-20", 0 ]
				}

			}
, 			{
				"patchline" : 				{
					"destination" : [ "obj-31", 0 ],
					"source" : [ "obj-24", 0 ]
				}

			}
, 			{
				"patchline" : 				{
					"destination" : [ "obj-33", 0 ],
					"source" : [ "obj-25", 0 ]
				}

			}
, 			{
				"patchline" : 				{
					"destination" : [ "obj-1", 0 ],
					"midpoints" : [ 204.5, 318.0, 154.5, 318.0, 154.5, 14.0, 204.5, 14.0 ],
					"source" : [ "obj-27", 0 ]
				}

			}
, 			{
				"patchline" : 				{
					"destination" : [ "obj-10", 0 ],
					"order" : 10,
					"source" : [ "obj-27", 1 ]
				}

			}
, 			{
				"patchline" : 				{
					"destination" : [ "obj-11", 0 ],
					"order" : 9,
					"source" : [ "obj-27", 1 ]
				}

			}
, 			{
				"patchline" : 				{
					"destination" : [ "obj-13", 0 ],
					"order" : 8,
					"source" : [ "obj-27", 1 ]
				}

			}
, 			{
				"patchline" : 				{
					"destination" : [ "obj-41", 0 ],
					"order" : 4,
					"source" : [ "obj-27", 1 ]
				}

			}
, 			{
				"patchline" : 				{
					"destination" : [ "obj-53", 0 ],
					"order" : 0,
					"source" : [ "obj-27", 1 ]
				}

			}
, 			{
				"patchline" : 				{
					"destination" : [ "obj-54", 0 ],
					"order" : 1,
					"source" : [ "obj-27", 1 ]
				}

			}
, 			{
				"patchline" : 				{
					"destination" : [ "obj-55", 0 ],
					"order" : 2,
					"source" : [ "obj-27", 1 ]
				}

			}
, 			{
				"patchline" : 				{
					"destination" : [ "obj-56", 0 ],
					"order" : 3,
					"source" : [ "obj-27", 1 ]
				}

			}
, 			{
				"patchline" : 				{
					"destination" : [ "obj-6", 0 ],
					"order" : 5,
					"source" : [ "obj-27", 1 ]
				}

			}
, 			{
				"patchline" : 				{
					"destination" : [ "obj-7", 0 ],
					"order" : 6,
					"source" : [ "obj-27", 1 ]
				}

			}
, 			{
				"patchline" : 				{
					"destination" : [ "obj-8", 0 ],
					"order" : 7,
					"source" : [ "obj-27", 1 ]
				}

			}
, 			{
				"patchline" : 				{
					"destination" : [ "obj-9", 0 ],
					"order" : 11,
					"source" : [ "obj-27", 1 ]
				}

			}
, 			{
				"patchline" : 				{
					"destination" : [ "obj-29", 0 ],
					"source" : [ "obj-28", 0 ]
				}

			}
, 			{
				"patchline" : 				{
					"destination" : [ "obj-20", 0 ],
					"source" : [ "obj-29", 0 ]
				}

			}
, 			{
				"patchline" : 				{
					"destination" : [ "obj-5", 0 ],
					"source" : [ "obj-3", 0 ]
				}

			}
, 			{
				"patchline" : 				{
					"destination" : [ "obj-25", 0 ],
					"source" : [ "obj-31", 1 ]
				}

			}
, 			{
				"patchline" : 				{
					"destination" : [ "obj-35", 1 ],
					"source" : [ "obj-31", 0 ]
				}

			}
, 			{
				"patchline" : 				{
					"destination" : [ "obj-35", 0 ],
					"source" : [ "obj-33", 0 ]
				}

			}
, 			{
				"patchline" : 				{
					"destination" : [ "obj-42", 0 ],
					"source" : [ "obj-35", 1 ]
				}

			}
, 			{
				"patchline" : 				{
					"destination" : [ "obj-82", 0 ],
					"source" : [ "obj-35", 0 ]
				}

			}
, 			{
				"patchline" : 				{
					"destination" : [ "obj-3", 0 ],
					"source" : [ "obj-4", 0 ]
				}

			}
, 			{
				"patchline" : 				{
					"destination" : [ "obj-15", 0 ],
					"source" : [ "obj-41", 0 ]
				}

			}
, 			{
				"patchline" : 				{
					"destination" : [ "obj-44", 0 ],
					"source" : [ "obj-42", 0 ]
				}

			}
, 			{
				"patchline" : 				{
					"destination" : [ "obj-46", 0 ],
					"source" : [ "obj-44", 0 ]
				}

			}
, 			{
				"patchline" : 				{
					"destination" : [ "obj-20", 0 ],
					"source" : [ "obj-46", 0 ]
				}

			}
, 			{
				"patchline" : 				{
					"destination" : [ "obj-2", 0 ],
					"source" : [ "obj-5", 1 ]
				}

			}
, 			{
				"patchline" : 				{
					"destination" : [ "obj-15", 0 ],
					"source" : [ "obj-53", 0 ]
				}

			}
, 			{
				"patchline" : 				{
					"destination" : [ "obj-15", 0 ],
					"source" : [ "obj-54", 0 ]
				}

			}
, 			{
				"patchline" : 				{
					"destination" : [ "obj-15", 0 ],
					"source" : [ "obj-55", 0 ]
				}

			}
, 			{
				"patchline" : 				{
					"destination" : [ "obj-15", 0 ],
					"source" : [ "obj-56", 0 ]
				}

			}
, 			{
				"patchline" : 				{
					"destination" : [ "obj-15", 0 ],
					"source" : [ "obj-6", 0 ]
				}

			}
, 			{
				"patchline" : 				{
					"destination" : [ "obj-15", 0 ],
					"source" : [ "obj-7", 0 ]
				}

			}
, 			{
				"patchline" : 				{
					"destination" : [ "obj-15", 0 ],
					"source" : [ "obj-8", 0 ]
				}

			}
, 			{
				"patchline" : 				{
					"destination" : [ "obj-44", 0 ],
					"source" : [ "obj-82", 0 ]
				}

			}
, 			{
				"patchline" : 				{
					"destination" : [ "obj-15", 0 ],
					"source" : [ "obj-9", 0 ]
				}

			}
 ],
		"dependency_cache" : [ 			{
				"name" : "ams.ShowBank.maxpat",
				"bootpath" : "~/GITHUB/cassiel/arc-max-simple/arc-max-simple/patchers",
				"patcherrelativepath" : ".",
				"type" : "JSON",
				"implicit" : 1
			}
, 			{
				"name" : "arc-max-simple.js",
				"bootpath" : "~/GITHUB/cassiel/arc-max-simple/arc-max-simple/code",
				"patcherrelativepath" : "../code",
				"type" : "TEXT",
				"implicit" : 1
			}
, 			{
				"name" : "monome-device.js",
				"bootpath" : "~/GITHUB/cassiel/arc-max-simple/arc-max-simple/code",
				"patcherrelativepath" : "../code",
				"type" : "TEXT",
				"implicit" : 1
			}
, 			{
				"name" : "monome-device.maxpat",
				"bootpath" : "~/GITHUB/cassiel/arc-max-simple/arc-max-simple/patchers",
				"patcherrelativepath" : ".",
				"type" : "JSON",
				"implicit" : 1
			}
 ],
		"autosave" : 0,
		"styles" : [ 			{
				"name" : "c.blue-comment-1",
				"default" : 				{
					"clearcolor" : [ 0.070206, 0.377472, 0.521117, 0.6 ]
				}
,
				"parentstyle" : "c.comment",
				"multi" : 0
			}
, 			{
				"name" : "c.comment",
				"parentstyle" : "",
				"multi" : 0
			}
, 			{
				"name" : "cassiel",
				"default" : 				{
					"bgcolor" : [ 0.163647, 0.174699, 0.17409, 1.0 ],
					"bgfillcolor" : 					{
						"angle" : 270.0,
						"color" : [ 0.290196, 0.309804, 0.301961, 1.0 ],
						"color1" : [ 0.376471, 0.384314, 0.4, 1.0 ],
						"color2" : [ 0.290196, 0.309804, 0.301961, 1.0 ],
						"proportion" : 0.39,
						"type" : "gradient"
					}
,
					"editing_bgcolor" : [ 0.32549, 0.345098, 0.372549, 1.0 ],
					"fontname" : [ "Courier" ],
					"locked_bgcolor" : [ 0.239216, 0.254902, 0.278431, 1.0 ],
					"textcolor" : [ 0.646639, 0.821777, 0.854593, 1.0 ]
				}
,
				"parentstyle" : "",
				"multi" : 0
			}
 ],
		"textcolor" : [ 0.086275, 0.309804, 0.52549, 1.0 ],
		"patchlinecolor" : [ 0.380392156862745, 0.380392156862745, 0.380392156862745, 1.0 ],
		"clearcolor" : [ 0.0, 0.078431, 0.321569, 0.2 ],
		"bgcolor" : [ 0.258823529411765, 0.262745098039216, 0.262745098039216, 1.0 ],
		"editing_bgcolor" : [ 0.862745, 0.870588, 0.878431, 1.0 ]
	}

}
